<svg id="Capa_1" enable-background="new 0 0 512 512" height="512" viewBox="0 0 512 512" width="512" xmlns="http://www.w3.org/2000/svg"><g><path d="m505.512 423.649-64.347-44.347c-9.938-6.849-23.512.285-23.512 12.351v29.347h-87.147c-6.984-34.746-37.734-61-74.506-61s-67.522 26.254-74.506 61h-90.494v-90.494c29.895-6.009 53.497-29.611 59.506-59.506h210.987c6.984 34.746 37.734 61 74.506 61 41.906 0 76-34.093 76-76 0-36.772-26.254-67.522-61-74.506v-105.494c0-8.284-6.716-15-15-15h-105.493c-6.984-34.747-37.734-61-74.506-61-37.66 0-68.994 27.54-74.96 63.535l-64.181-44.233c-9.94-6.849-23.512.286-23.512 12.351v29.347h-47.347c-8.284 0-15 6.716-15 15s6.716 15 15 15h47.347v29.347c0 12.159 13.659 19.144 23.512 12.351l64.181-44.233c5.966 35.995 37.3 63.535 74.96 63.535 36.772 0 67.522-26.253 74.506-61h90.494v90.494c-29.895 6.009-53.497 29.611-59.506 59.506h-210.988c-6.984-34.747-37.734-61-74.506-61-41.906 0-76 34.093-76 76 0 36.772 26.254 67.522 61 74.506v105.494c0 8.284 6.716 15 15 15h105.494c6.984 34.746 37.734 61 74.506 61s67.522-26.254 74.506-61h87.147v29.347c0 12.159 13.659 19.144 23.512 12.351l64.347-44.347c8.629-5.947 8.658-18.735 0-24.702zm-382.165-331.857v-31.584l22.914 15.792zm132.653 30.208c-25.364 0-46-20.636-46-46s20.636-46 46-46 46 20.636 46 46-20.636 46-46 46zm180 88c25.364 0 46 20.636 46 46s-20.636 46-46 46-46-20.636-46-46 20.636-46 46-46zm-406 46c0-25.364 20.636-46 46-46s46 20.636 46 46-20.636 46-46 46-46-20.636-46-46zm226 226c-25.364 0-46-20.636-46-46s20.636-46 46-46 46 20.636 46 46-20.636 46-46 46zm191.653-30.208v-31.583l22.914 15.791z"/></g></svg>